<?xml version="1.0" encoding="UTF-8" standalone="no" ?>
<!DOCTYPE svg PUBLIC "-//W3C//DTD SVG 1.1//EN" "http://www.w3.org/Graphics/SVG/1.1/DTD/svg11.dtd">
<svg xmlns="http://www.w3.org/2000/svg" xmlns:xlink="http://www.w3.org/1999/xlink" version="1.1" width="400" height="400" viewBox="0 0 400 400" xml:space="preserve">
<desc>Created with Fabric.js 3.6.2</desc>
<defs>
</defs>
<g transform="matrix(0.42 0 0 0.42 200 200)" id="Layer_1"  >
<path style="stroke: none; stroke-width: 1; stroke-dasharray: none; stroke-linecap: butt; stroke-dashoffset: 0; stroke-linejoin: miter; stroke-miterlimit: 4; fill: rgb(77,77,77); fill-rule: nonzero; opacity: 1;"  transform=" translate(-256.05, -256)" d="M 492 109.5 c -17.4 7.7 -36 12.9 -55.6 15.3 c 20 -12 35.4 -31 42.6 -53.6 c -18.7 11.1 -39.4 19.2 -61.5 23.5 C 399.8 75.8 374.6 64 346.8 64 c -53.5 0 -96.8 43.4 -96.8 96.9 c 0 7.6 0.8 15 2.5 22.1 C 172 179 100.6 140.4 52.9 81.7 c -8.3 14.3 -13.1 31 -13.1 48.7 c 0 33.6 17.1 63.3 43.1 80.7 C 67 210.7 52 206.3 39 199 c 0 0.4 0 0.8 0 1.2 c 0 47 33.4 86.1 77.7 95 c -8.1 2.2 -16.7 3.4 -25.5 3.4 c -6.2 0 -12.3 -0.6 -18.2 -1.8 c 12.3 38.5 48.1 66.5 90.5 67.3 c -33.1 26 -74.9 41.5 -120.3 41.5 c -7.8 0 -15.5 -0.5 -23.1 -1.4 C 62.9 432 113.8 448 168.4 448 C 346.6 448 444 300.3 444 172.2 c 0 -4.2 -0.1 -8.4 -0.3 -12.5 C 462.6 146 479 128.9 492 109.5 z" stroke-linecap="round" />
</g>
</svg>