<?xml version="1.0" encoding="UTF-8" standalone="no" ?>
<!DOCTYPE svg PUBLIC "-//W3C//DTD SVG 1.1//EN" "http://www.w3.org/Graphics/SVG/1.1/DTD/svg11.dtd">
<svg xmlns="http://www.w3.org/2000/svg" xmlns:xlink="http://www.w3.org/1999/xlink" version="1.1" width="400" height="400" viewBox="0 0 400 400" xml:space="preserve">
<desc>Created with Fabric.js 3.6.2</desc>
<defs>
</defs>
<g transform="matrix(2.67 0 0 2.67 200 200)" id="YouTube"  >
<path style="stroke: none; stroke-width: 1; stroke-dasharray: none; stroke-linecap: butt; stroke-dashoffset: 0; stroke-linejoin: miter; stroke-miterlimit: 4; fill: rgb(77,77,77); fill-rule: nonzero; opacity: 1;"  transform=" translate(-45, -45)" d="M 70.9 65.8 H 66 l 0 -2.9 c 0 -1.3 1 -2.3 2.3 -2.3 h 0.3 c 1.3 0 2.3 1 2.3 2.3 L 70.9 65.8 z M 52.4 59.7 c -1.3 0 -2.3 0.8 -2.3 1.9 v 14 c 0 1 1 1.9 2.3 1.9 c 1.3 0 2.3 -0.8 2.3 -1.9 v -14 C 54.7 60.5 53.7 59.7 52.4 59.7 z M 82.5 51.9 v 26.5 C 82.5 84.8 77 90 70.2 90 H 19.8 C 13 90 7.5 84.8 7.5 78.4 V 51.9 c 0 -6.4 5.5 -11.6 12.3 -11.6 h 50.5 C 77 40.3 82.5 45.5 82.5 51.9 z M 23.1 81.3 l 0 -28 l 6.3 0 v -4.1 l -16.7 0 v 4.1 l 5.2 0 v 28 H 23.1 z M 41.9 57.5 h -5.2 v 14.9 c 0 2.2 0.1 3.2 0 3.6 c -0.4 1.2 -2.3 2.4 -3.1 0.1 c -0.1 -0.4 0 -1.6 0 -3.6 l 0 -15 h -5.2 l 0 14.8 c 0 2.3 -0.1 4 0 4.7 c 0.1 1.4 0.1 2.9 1.3 3.8 c 2.3 1.7 6.8 -0.3 8 -2.7 l 0 3.1 l 4.2 0 L 41.9 57.5 L 41.9 57.5 z M 58.6 74.6 l 0 -12.4 c 0 -4.7 -3.5 -7.6 -8.4 -3.7 l 0 -9.2 l -5.2 0 l 0 31.9 l 4.3 -0.1 l 0.4 -2 C 55.1 84.1 58.6 80.6 58.6 74.6 z M 74.9 73 L 71 73 c 0 0.2 0 0.3 0 0.5 v 2.2 c 0 1.2 -1 2.1 -2.1 2.1 h -0.8 c -1.2 0 -2.1 -1 -2.1 -2.1 v -0.2 V 73 V 70 h 9 v -3.4 c 0 -2.5 -0.1 -4.9 -0.3 -6.3 c -0.6 -4.5 -6.9 -5.2 -10.1 -2.9 c -1 0.7 -1.7 1.7 -2.2 2.9 c -0.4 1.3 -0.7 3 -0.7 5.3 V 73 C 61.7 85.3 76.7 83.6 74.9 73 z M 54.8 32.7 c 0.3 0.7 0.7 1.2 1.3 1.6 c 0.6 0.4 1.3 0.6 2.1 0.6 c 0.8 0 1.4 -0.2 2 -0.6 c 0.6 -0.4 1.1 -1 1.5 -1.9 l -0.1 2 h 5.8 V 9.7 h -4.6 V 29 c 0 1 -0.9 1.9 -1.9 1.9 c -1 0 -1.9 -0.9 -1.9 -1.9 V 9.7 h -4.8 v 16.7 c 0 2.1 0 3.5 0.1 4.3 C 54.4 31.4 54.6 32.1 54.8 32.7 z M 37.2 18.8 c 0 -2.4 0.2 -4.2 0.6 -5.6 c 0.4 -1.3 1.1 -2.4 2.1 -3.2 c 1 -0.8 2.3 -1.2 3.9 -1.2 c 1.3 0 2.5 0.3 3.5 0.8 c 1 0.5 1.7 1.2 2.2 2 c 0.5 0.8 0.9 1.7 1.1 2.6 c 0.2 0.9 0.3 2.2 0.3 4 v 6.3 c 0 2.3 -0.1 4 -0.3 5.1 c -0.2 1.1 -0.6 2.1 -1.1 3 c -0.6 0.9 -1.3 1.6 -2.2 2.1 c -0.9 0.4 -2 0.7 -3.2 0.7 c -1.3 0 -2.4 -0.2 -3.4 -0.6 c -0.9 -0.4 -1.6 -1 -2.1 -1.7 c -0.5 -0.8 -0.9 -1.7 -1.1 -2.8 c -0.2 -1.1 -0.3 -2.7 -0.3 -4.9 L 37.2 18.8 L 37.2 18.8 z M 41.8 28.6 c 0 1.4 1 2.5 2.3 2.5 c 1.3 0 2.3 -1.1 2.3 -2.5 V 15.4 c 0 -1.4 -1 -2.5 -2.3 -2.5 c -1.3 0 -2.3 1.1 -2.3 2.5 V 28.6 z M 25.7 35.2 h 5.5 l 0 -19 L 37.7 0 h -6 l -3.4 12.1 L 24.7 0 h -5.9 l 6.9 16.3 L 25.7 35.2 z" stroke-linecap="round" />
</g>
</svg>